<svg width="24" height="24" viewBox="0 0 24 24" fill="none" xmlns="http://www.w3.org/2000/svg">
<rect width="24" height="24" rx="4" fill="#482EC4"/>
<path d="M4.16193 15.0625C3.98958 15.0625 3.84186 15.0019 3.71875 14.8807C3.59564 14.7595 3.53504 14.6117 3.53693 14.4375C3.53504 14.267 3.59564 14.1212 3.71875 14C3.84186 13.8788 3.98958 13.8182 4.16193 13.8182C4.3286 13.8182 4.47348 13.8788 4.59659 14C4.72159 14.1212 4.78504 14.267 4.78693 14.4375C4.78504 14.553 4.75473 14.6581 4.69602 14.7528C4.6392 14.8475 4.56345 14.9233 4.46875 14.9801C4.37595 15.035 4.27367 15.0625 4.16193 15.0625ZM10.5154 9.18182V15H9.57793L6.83645 11.0369H6.78815V15H5.73418V9.18182H6.67736L9.41599 13.1477H9.46713V9.18182H10.5154ZM11.5039 15V9.18182H15.288V10.0653H12.5578V11.6449H15.0919V12.5284H12.5578V14.1165H15.3107V15H11.5039ZM15.9476 10.0653V9.18182H20.5896V10.0653H18.7913V15H17.7459V10.0653H15.9476Z" fill="white"/>
</svg>
