<svg width="331" height="131" viewBox="0 0 331 131" fill="none" xmlns="http://www.w3.org/2000/svg">
    <path
        d="M15.2733 126.333C12.0491 126.333 9.30852 125.259 7.05152 123.11C4.79452 120.906 3.66602 118.289 3.66602 115.259C3.66602 112.173 4.79452 109.529 7.05152 107.325C9.30852 105.121 12.0491 104.019 15.2733 104.019C18.5513 104.019 21.3188 105.121 23.5758 107.325C25.8865 109.529 27.0419 112.173 27.0419 115.259C27.0419 118.289 25.8865 120.906 23.5758 123.11C21.3188 125.259 18.5513 126.333 15.2733 126.333Z"
        fill="white" />
    <path
        d="M144.167 124.515H123.209L67.9944 37.406C66.5974 35.202 65.4414 32.915 64.5284 30.546H64.0444C64.4744 33.081 64.6894 38.508 64.6894 46.827V124.515H46.1494V6H68.4774L121.839 91.043C124.096 94.57 125.547 96.994 126.192 98.316H126.514C125.977 95.176 125.708 89.859 125.708 82.365V6H144.167V124.515Z"
        fill="white" />
    <path
        d="M234.449 124.515H169.561V6H231.87V22.695H188.746V56.249H228.485V72.861H188.746V107.903H234.449V124.515Z"
        fill="white" />
    <path d="M326.667 22.695H293.457V124.515H274.272V22.695H241.143V6H326.667V22.695Z" fill="white" />
</svg>
    